# xmcd
#
# Track frame offsets: 
#        150
#        18391
#        34705
#        47298
#        76090
#        101605
#        118783
#        141229
#        166785
#        195366
#        213449
#        236311
#        248636
#        273445
#        291181
#        315151
#
# Disc length: 4453 seconds
#
# Revision: 1
# Processed by: cddbd v1.5.2PL0 Copyright (c) Steve Scherf et al.
# Submitted via: ExactAudioCopy v0.99pb4
#
DISCID=c6116310
DTITLE=Various Artist - Best of Bar and Lounge Music [CD3)
DYEAR=2009
DGENRE=Jazz
TTITLE0=George Benson - Nothing's Gonna Change My Love For You
TTITLE1=Pati Austin (Duet with James Ingram) - Baby Come To Me
TTITLE2=Esther Phillips - Fever
TTITLE3=Dexter Gordon - Besame Mucho
TTITLE4=Junior Mance - Sweet Georgia Brown
TTITLE5=Peggy Lee - Always
TTITLE6=Joe Sample - Just Chillin'
TTITLE7=Bill Evans - You Must Believe In Spring
TTITLE8=George Duke (with Perri) - The Times We've Known
TTITLE9=Jonathan Butler - Thoughts Of You
TTITLE10=The Modern Jazz Quartet - Bluesology
TTITLE11=Nat Adderley - Manchild
TTITLE12=Eddie Harris - The Shadow Of Your Smile
TTITLE13=Hank Crawford (with The Marty Paich Orchestra) - Stardust
TTITLE14=Patrice Rushen - When I Found You
TTITLE15=Natalie Cole - Crazy He Calls Me
EXTD=YEAR: 2009
EXTT0=
EXTT1=
EXTT2=
EXTT3=
EXTT4=
EXTT5=
EXTT6=
EXTT7=
EXTT8=
EXTT9=
EXTT10=
EXTT11=
EXTT12=
EXTT13=
EXTT14=
EXTT15=
PLAYORDER=
